<?xml version="1.0" ?><svg viewBox="0 0 60 60" xmlns="http://www.w3.org/2000/svg"><title/><g id="text"><text font-family="MyriadPro-Regular, Myriad Pro" font-size="9" transform="translate(6.76123 -49.60986)"><tspan letter-spacing="-0.01199em"/><tspan x="4.36523" y="0"/><tspan letter-spacing="-0.04096em" x="18.48584" y="0"/><tspan letter-spacing="-0.04503em" x="20.0249" y="0"/><tspan x="24.09277" y="0"/><tspan letter-spacing="0.00401em" x="29.05176" y="0"/><tspan x="32.03076" y="0"/></text></g><g data-name="Layer 1" id="Layer_1"><path d="M42.85431,47.38171l5.45428,3.89563A10.32207,10.32207,0,0,1,49.56995,50.207l-5.732-4.0943A11.5165,11.5165,0,0,1,42.85431,47.38171Z"/><path d="M20.293,56.293l.24121-.24219A10.37474,10.37474,0,0,0,15,58h5.53418l-.24121-.293A.99964.99964,0,0,1,20.293,56.293Z"/><circle cx="38" cy="26" r="1"/><path d="M37.293,56.293l.24121-.24219A10.59612,10.59612,0,0,0,31.51172,58h6.07422l-.293-.293A.99964.99964,0,0,1,37.293,56.293Z"/><path d="M56.293,51.707a.99964.99964,0,0,1,0-1.41406l.24121-.24219A10.59612,10.59612,0,0,0,50.51172,52h6.07422Z"/><path d="M47.72852,30.12793a12.42268,12.42268,0,0,0-7.14746,2.68555.99968.99968,0,0,1-1.16211-1.627,14.27991,14.27991,0,0,1,8.127-3.0498,9.70159,9.70159,0,0,0,6.40137-2.64648l.00446-.00238a.98692.98692,0,0,0-.233-.50348C51.86719,23,48.15332,23,42,23a1.00005,1.00005,0,0,1-.74512-.333A4.00656,4.00656,0,0,0,38,21a5.00589,5.00589,0,0,0-5,5,1.00084,1.00084,0,0,1-.03809.27441c-1.02246,3.57813-3.89746,4.30664-7.22559,5.14941-4.18457,1.06055-9.91406,2.51172-15.9502,10.19434A19.34222,19.34222,0,0,1,5.06248,45.5791c-1.37987.90723-2.57127,1.69141-2.69823,2.47461a2.4155,2.4155,0,0,0,.61047,1.593C5.51733,48.0271,9.47107,47,14,47a1,1,0,0,1,0,2C6.92773,49,2,51.63477,2,54c0,1.83594,3.37988,3.0459,10.07617,3.61719a.995.995,0,0,1,.2168-.32422,10.31262,10.31262,0,0,1,1.14606-.98437L8.72559,54.96191a1.00016,1.00016,0,0,1,.12207-1.9502c7.5459-1.16113,9.09668-2.8623,9.35059-3.77344.33984-1.22363-.95117-3.06445-3.83887-5.46973a1.00054,1.00054,0,1,1,1.28125-1.53711c2.4873,2.07324,5.24512,4.80371,4.48438,7.542-.54,1.94336-2.74609,3.374-6.85547,4.40625l2.67017.76282a19.01124,19.01124,0,0,1,6.90015-.94232l2.59326-.84363-3.29736-5.65265a1.00215,1.00215,0,0,1,.23926-1.28516,15.51117,15.51117,0,0,0,4.09668-4.9043,9.08377,9.08377,0,0,1,4.08105-4.209,1.00012,1.00012,0,0,1,.89453,1.78906,7.17068,7.17068,0,0,0-3.248,3.42773,17.51441,17.51441,0,0,1-3.91016,4.90332l5.56738,9.543A10.12556,10.12556,0,0,1,31.54907,55.59l-4.39771-7.06165a.99983.99983,0,0,1,.22363-1.30957,15.51117,15.51117,0,0,0,4.09668-4.9043,9.08377,9.08377,0,0,1,4.08105-4.209,1.00012,1.00012,0,0,1,.89453,1.78906,7.17068,7.17068,0,0,0-3.248,3.42773A17.54134,17.54134,0,0,1,29.30859,48.209l1.71912,2.761C40.2323,49.07928,44,45.31207,44,38a.99942.99942,0,0,1,1-1c4.11823,0,7.61877-3.71,8.67181-8.80774A11.20972,11.20972,0,0,1,47.72852,30.12793ZM35,26a3,3,0,1,1,3,3A3.00328,3.00328,0,0,1,35,26Z"/></g></svg>